# xmcd
#
# Track frame offsets: 
#        150
#        14160
#        29059
#        40809
#        54471
#        69838
#        84518
#        100317
#        114798
#        128890
#        143867
#        160440
#        173399
#        187325
#        204162
#        219390
#        232796
#        245592
#        260812
#        274842
#        287867
#        301053
#        315591
#
# Disc length: 4400 seconds
#
# Revision: 0
# Processed by: cddbd v1.5.2PL0 Copyright (c) Steve Scherf et al.
# Submitted via: ExactAudioCopy v0.99pb5
#
DISCID=4a112e17
DTITLE=Various Artist - Barrelhouse Blues
DYEAR=2009
DGENRE=Blues
TTITLE0=Ed Andrews - Barrelhouse Blues
TTITLE1=Speckled Red - The Dirty Dozen
TTITLE2=Blind Washington - Paul And Silas In Jail
TTITLE3=Peg Leg Howell - New Jelly Roll Blues
TTITLE4=Peg Leg Howell - Beaver Slide Rag
TTITLE5=Pink Anderson and Simmie Dooley - Every Day In The Week Blues
TTITLE6=Pink Anderson and Simmie Dooley - C C And O Blues
TTITLE7=Luke Jordan - Pick Poor Robin Clean
TTITLE8=Bo Carter - Good Old Turnip Green
TTITLE9=Alec Johnson - Mysterious Coon
TTITLE10=Jim Jackson - Traveling Man
TTITLE11=Furry Lewis - John Henry (The Steel Driving Man)
TTITLE12=Jaybird Coleman - Boll Weevill
TTITLE13=Richard 'Rabbit' Brown - Sinking Of The Titanic
TTITLE14=Mississippi John Hurt - Frankie
TTITLE15=Will Bennett - Railroad Bill
TTITLE16=Garfield Akers - Cottonfield Blues Part 1
TTITLE17=Texas Alexander - Awful Moaning Bles Parts 1 And 2
TTITLE18=Blind Lemon Jefferson - Matchbox Blues
TTITLE19=Barbecue Bob - She Moves It Just Right
TTITLE20=Julius Daniels - I'm Coin' To Tell God You Doin'
TTITLE21=Tim Wilkins - Dirty Deal Blues
TTITLE22=Unknown - Unknown - Track 23
EXTD=
EXTT0=
EXTT1=
EXTT2=
EXTT3=
EXTT4=
EXTT5=
EXTT6=
EXTT7=
EXTT8=
EXTT9=
EXTT10=
EXTT11=
EXTT12=
EXTT13=
EXTT14=
EXTT15=
EXTT16=
EXTT17=
EXTT18=
EXTT19=
EXTT20=
EXTT21=
EXTT22=
PLAYORDER=
